<svg xmlns="http://www.w3.org/2000/svg" width="38" height="38" fill="none"><g clip-path="url(#a)"><path fill="#000" fill-opacity=".7" d="M10.348 8.595h1.753v-2.63h2.63V4.214H12.1v-2.63h-1.753v2.63h-2.63v1.753h2.63v2.63Zm-3.506 7.889a1.75 1.75 0 0 0-1.744 1.753c0 .964.78 1.753 1.744 1.753s1.753-.79 1.753-1.753c0-.964-.789-1.753-1.753-1.753Zm8.765 0a1.75 1.75 0 0 0-1.744 1.753c0 .964.78 1.753 1.744 1.753s1.753-.79 1.753-1.753c0-.964-.789-1.753-1.753-1.753Zm-7.8-4.383h6.53c.657 0 1.235-.36 1.533-.903l3.383-6.144-1.525-.841-3.392 6.135H8.183L4.45 2.46H1.583v1.753h1.753l3.156 6.652-1.184 2.139c-.64 1.175.202 2.603 1.534 2.603H17.36v-1.753H6.842l.964-1.753Z"/></g><defs><clipPath id="a"><path fill="#fff" d="M0 0h38v38H0z"/></clipPath></defs></svg>