<svg xmlns="http://www.w3.org/2000/svg" width="68.739" height="43.482"><g data-name="Group 272"><g data-name="Group 271"><path fill="#1d2547" d="m63.927 18.438-1.78-7.12A1.076 1.076 0 0 0 63 10.261V9.113a4.526 4.526 0 0 0-4.52-4.52h-8.11V2.224A2.227 2.227 0 0 0 48.146 0H6.816a2.227 2.227 0 0 0-2.224 2.224v19.514a1.077 1.077 0 0 0 2.153 0V2.224a.072.072 0 0 1 .072-.072h41.329a.072.072 0 0 1 .072.072v19.514a1.077 1.077 0 1 0 2.153 0v-1.22h12.7a3.522 3.522 0 0 1 3.345 2.44H63.07a1.076 1.076 0 0 0-1.076 1.076v2.3a3.376 3.376 0 0 0 3.372 3.372h1.22v4.732h-2.814a6.814 6.814 0 0 0-12.884 0h-.518v-8.1a1.077 1.077 0 1 0-2.153 0v8.1h-22.33a6.814 6.814 0 0 0-12.887 0H6.816a.072.072 0 0 1-.072-.072v-2.368h4.664a1.077 1.077 0 0 0 0-2.153H1.076a1.077 1.077 0 0 0 0 2.153h3.516v2.368a2.227 2.227 0 0 0 2.224 2.224h5.814v.072a6.816 6.816 0 0 0 13.633 0v-.072h24.252v.072a6.816 6.816 0 0 0 13.633 0v-.072h3.518a1.076 1.076 0 0 0 1.076-1.076V24.038a5.677 5.677 0 0 0-4.815-5.6ZM50.37 6.745h8.108a2.371 2.371 0 0 1 2.368 2.368v.072H50.37Zm0 11.624v-7.031h9.564l1.758 7.032Zm-30.925 22.96a4.664 4.664 0 1 1 4.664-4.664 4.669 4.669 0 0 1-4.664 4.664Zm37.885 0a4.664 4.664 0 1 1 4.664-4.664 4.669 4.669 0 0 1-4.664 4.664Zm9.256-13.776h-1.22a1.221 1.221 0 0 1-1.22-1.22v-1.22h2.44v2.44Z" data-name="Path 217"/></g></g><g data-name="Group 274"><g data-name="Group 273"><path fill="#1d2547" d="M19.445 34.444a2.224 2.224 0 1 0 2.224 2.224 2.227 2.227 0 0 0-2.224-2.224Z" data-name="Path 218"/></g></g><g data-name="Group 276"><g data-name="Group 275"><path fill="#1d2547" d="M57.33 34.444a2.224 2.224 0 1 0 2.224 2.224 2.227 2.227 0 0 0-2.224-2.224Z" data-name="Path 219"/></g></g><g data-name="Group 278"><g data-name="Group 277"><path fill="#1d2547" d="M44.702 29.849H28.626a1.077 1.077 0 1 0 0 2.153h16.072a1.077 1.077 0 1 0 0-2.153Z" data-name="Path 220"/></g></g><g data-name="Group 280"><g data-name="Group 279"><path fill="#1d2547" d="M17.149 25.257H3.372a1.077 1.077 0 1 0 0 2.153h13.777a1.077 1.077 0 1 0 0-2.153Z" data-name="Path 221"/></g></g><g data-name="Group 282"><g data-name="Group 281"><path fill="#1d2547" d="M37.427 10.647a1.076 1.076 0 0 0-1.522 0l-9.571 9.571-4.979-4.979a1.076 1.076 0 0 0-1.522 1.522l5.74 5.74a1.076 1.076 0 0 0 1.522 0l10.332-10.332a1.076 1.076 0 0 0 0-1.522Z" data-name="Path 222"/></g></g></svg>