<svg xmlns="http://www.w3.org/2000/svg" width="47.15" height="44.204"><path fill="#1d2547" d="M38.506 2.357H8.645V.786A.786.786 0 0 0 7.299.23L.231 7.3a.785.785 0 0 0 0 1.111l7.068 7.075a.785.785 0 0 0 1.341-.556v-1.571h29.866a2.36 2.36 0 0 1 2.358 2.357v10.216a2.36 2.36 0 0 1-2.358 2.358h-3.929V18.271a.785.785 0 0 0-.786-.786H.786a.785.785 0 0 0-.787.786v25.146a.785.785 0 0 0 .786.786h33.006a.785.785 0 0 0 .786-.786V33h3.929a8.654 8.654 0 0 0 8.644-8.644V11a8.654 8.654 0 0 0-8.644-8.643ZM1.572 37.916h31.433v1.572H1.572Zm0-5.43a4.721 4.721 0 0 1 3.859 3.858H1.572Zm31.433-3.214V30.9a6.292 6.292 0 0 0-5.447 5.446H7.019A6.293 6.293 0 0 0 1.572 30.9v-6.4a6.292 6.292 0 0 0 5.447-5.444H27.56a6.292 6.292 0 0 0 5.446 5.444v4.77Zm0 3.214v3.858h-3.858a4.722 4.722 0 0 1 3.858-3.857Zm0-9.572a4.721 4.721 0 0 1-3.859-3.859h3.859ZM5.431 19.056a4.722 4.722 0 0 1-3.859 3.859v-3.859ZM1.572 42.631V41.06h31.433v1.572Zm44.007-18.27a7.08 7.08 0 0 1-7.073 7.073h-3.929v-1.572h3.929a3.934 3.934 0 0 0 3.929-3.929V15.717a3.934 3.934 0 0 0-3.929-3.929H7.859a.785.785 0 0 0-.786.786v.46L1.899 7.858l5.175-5.175v.46a.785.785 0 0 0 .786.786h30.646A7.08 7.08 0 0 1 45.579 11Zm0 0" data-name="Path 227"/><path fill="#1d2547" d="M17.284 22.196a5.5 5.5 0 1 0 5.5 5.5 5.508 5.508 0 0 0-5.5-5.5Zm0 9.43a3.929 3.929 0 1 1 3.929-3.929 3.934 3.934 0 0 1-3.929 3.933Zm0 0" data-name="Path 228"/><path fill="#1d2547" d="M25.929 26.911h1.572v1.572h-1.572Zm0 0" data-name="Path 229"/><path fill="#1d2547" d="M7.069 26.911h1.572v1.572H7.069Zm0 0" data-name="Path 230"/><path fill="#1d2547" d="M8.641 5.497h7.073v1.572H8.641Zm0 0" data-name="Path 231"/><path fill="#1d2547" d="M17.285 5.497h1.572v1.572h-1.572Zm0 0" data-name="Path 232"/><path fill="#1d2547" d="M20.428 5.497H22v1.572h-1.572Zm0 0" data-name="Path 233"/><path fill="#1d2547" d="M23.571 5.497h1.572v1.572h-1.572Zm0 0" data-name="Path 234"/></svg>