<svg xmlns="http://www.w3.org/2000/svg" width="50.644" height="44.246"><g data-name="Group 48"><g fill="#1d2547" data-name="Group 47"><path d="M44.012 0H6.631A6.639 6.639 0 0 0 0 6.631v21.523a6.639 6.639 0 0 0 6.631 6.631h19.815v5.805a3.66 3.66 0 0 0 3.654 3.656h11.024a3.659 3.659 0 0 0 3.655-3.655v-5.853a6.639 6.639 0 0 0 5.865-6.583V6.631A6.639 6.639 0 0 0 44.012 0Zm-1.168 40.591a1.721 1.721 0 0 1-1.72 1.72H30.1a1.722 1.722 0 0 1-1.721-1.72V30.267h14.465v10.324ZM31.671 28.332V24.66a3.949 3.949 0 0 1 7.882 0v3.671Zm17.038-.177a4.693 4.693 0 0 1-3.929 4.618V29.3a.967.967 0 0 0-.967-.967h-2.324V24.66a5.882 5.882 0 0 0-11.754 0v3.671h-2.321a.967.967 0 0 0-.967.967v3.551H6.631a4.7 4.7 0 0 1-4.7-4.7V15.104h46.778Zm0-14.986H1.935v-3.3h46.774v3.3Zm0-5.238H1.935v-1.3a4.7 4.7 0 0 1 4.7-4.7h37.378a4.7 4.7 0 0 1 4.7 4.7Z" data-name="Path 53"/><path d="M6.773 29.122h15.438a.968.968 0 1 0 0-1.935H6.773a.968.968 0 1 0 0 1.935Z" data-name="Path 54"/><path d="M34.645 37.627v2.158a.968.968 0 0 0 1.935 0v-2.158a3.117 3.117 0 1 0-1.935 0Zm.967-4.132a1.183 1.183 0 1 1-1.182 1.183 1.185 1.185 0 0 1 1.182-1.183Z" data-name="Path 55"/></g></g></svg>