<svg xmlns="http://www.w3.org/2000/svg" width="43.499" height="43.499"><path fill="#1d2547" d="M23.925.001A19.589 19.589 0 0 0 5.22 25.361l-4.17-2.085a.726.726 0 1 0-.649 1.3l5.8 2.9a.725.725 0 0 0 .837-.136l4.35-4.35a.725.725 0 0 0-1.025-1.025L6.8 25.524a18.127 18.127 0 1 1 17.125 12.177.725.725 0 1 0 0 1.45 19.575 19.575 0 0 0 0-39.149Z" data-name="Path 192"/><path fill="#1d2547" d="M14.555 23.475a.725.725 0 0 0 .67.448h7.25a.725.725 0 1 0 0-1.45h-5.5l5.287-5.287a.725.725 0 0 0 .212-.513c0-1.6-1.626-2.9-3.625-2.9s-3.625 1.3-3.625 2.9a.725.725 0 0 0 1.45 0c0-.786 1-1.45 2.175-1.45a2.159 2.159 0 0 1 2.137 1.187l-6.275 6.275a.725.725 0 0 0-.156.79Z" data-name="Path 193"/><path fill="#1d2547" d="M36.615 11.161a.725.725 0 1 0-1.208.8c.253.381.49.779.7 1.183a.725.725 0 0 0 1.282-.678 14.722 14.722 0 0 0-.774-1.305Z" data-name="Path 194"/><path fill="#1d2547" d="M38.536 15.285a.725.725 0 1 0-1.391.408q.193.661.32 1.338a.725.725 0 0 0 1.425-.266 15.2 15.2 0 0 0-.354-1.48Z" data-name="Path 195"/><path fill="#1d2547" d="M37.994 23.166a.725.725 0 0 0-.906.479 13.746 13.746 0 0 1-.472 1.293.725.725 0 0 0 1.335.565 15.19 15.19 0 0 0 .522-1.43.725.725 0 0 0-.479-.907Z" data-name="Path 196"/><path fill="#1d2547" d="M33.563 7.789a.725.725 0 0 0-.918 1.122 13.763 13.763 0 0 1 1.021.924.725.725 0 1 0 1.026-1.025 15.157 15.157 0 0 0-1.129-1.021Z" data-name="Path 197"/><path fill="#1d2547" d="M34.55 29.467a.725.725 0 0 0 1.021-.087c.326-.386.636-.794.921-1.211a.727.727 0 1 0-1.2-.82c-.259.377-.539.746-.834 1.1a.725.725 0 0 0 .092 1.018Z" data-name="Path 198"/><path fill="#1d2547" d="M39.074 21.093c.05-.5.075-1.012.075-1.518a.725.725 0 1 0-1.45 0c0 .459-.023.921-.068 1.376a.725.725 0 0 0 .65.793h.073a.725.725 0 0 0 .72-.651Z" data-name="Path 199"/><path fill="#1d2547" d="M20.838 6.128a.731.731 0 0 0 .154-.017 13.756 13.756 0 0 1 1.358-.223.725.725 0 0 0-.163-1.441c-.5.057-1.008.14-1.5.247a.725.725 0 0 0 .153 1.434Z" data-name="Path 200"/><path fill="#1d2547" d="M11.736 28.699c.3.4.63.8.972 1.17a.725.725 0 1 0 1.068-.981 14.151 14.151 0 0 1-.88-1.059.725.725 0 0 0-1.16.87Z" data-name="Path 201"/><path fill="#1d2547" d="M10.081 15.186a.725.725 0 0 0-.885.517 15.205 15.205 0 0 0-.311 1.49.725.725 0 1 0 1.432.225 13.755 13.755 0 0 1 .281-1.347.725.725 0 0 0-.517-.885Z" data-name="Path 202"/><path fill="#1d2547" d="M30.353 7.389a.725.725 0 1 0 .678-1.282 15.161 15.161 0 0 0-1.379-.643.725.725 0 0 0-.546 1.343 13.755 13.755 0 0 1 1.247.582Z" data-name="Path 203"/><path fill="#1d2547" d="M11.56 13.496a13.758 13.758 0 0 1 .669-1.2.725.725 0 1 0-1.23-.768c-.268.429-.516.876-.74 1.33a.725.725 0 0 0 1.3.641Z" data-name="Path 204"/><path fill="#1d2547" d="M16.795 7.671a.722.722 0 0 0 .356-.094c.4-.225.812-.433 1.23-.617a.725.725 0 1 0-.584-1.327 15.208 15.208 0 0 0-1.36.682.725.725 0 0 0 .358 1.356Z" data-name="Path 205"/><path fill="#1d2547" d="M32.491 30.362c-.358.285-.735.555-1.119.8a.725.725 0 1 0 .785 1.219 15.43 15.43 0 0 0 1.236-.886.725.725 0 1 0-.9-1.135Z" data-name="Path 206"/><path fill="#1d2547" d="M28.922 32.414a13.724 13.724 0 0 1-1.306.434.726.726 0 0 0 .388 1.4 15.172 15.172 0 0 0 1.444-.48.725.725 0 0 0-.526-1.351Z" data-name="Path 207"/><path fill="#1d2547" d="M15.831 30.719a.725.725 0 0 0-.853 1.172c.409.3.837.578 1.273.833a.725.725 0 0 0 .732-1.252c-.398-.23-.786-.483-1.152-.753Z" data-name="Path 208"/><path fill="#1d2547" d="M23.53 33.343h-.021a.725.725 0 1 0-.02 1.45c.144 0 .29.006.435.006.362 0 .727-.013 1.085-.038a.725.725 0 1 0-.1-1.446c-.456.031-.922.041-1.379.028Z" data-name="Path 209"/><path fill="#1d2547" d="M13.955 8.068c-.382.331-.751.685-1.1 1.052a.726.726 0 0 0 1.054 1c.314-.332.649-.653.994-.953a.727.727 0 0 0-.95-1.1Z" data-name="Path 210"/><path fill="#1d2547" d="M19.48 32.617a.725.725 0 0 0-.468 1.372 15.221 15.221 0 0 0 1.464.418.725.725 0 0 0 .327-1.413 13.726 13.726 0 0 1-1.323-.377Z" data-name="Path 211"/><path fill="#1d2547" d="M26.734 4.609c-.5-.093-1-.161-1.508-.2a.725.725 0 0 0-.122 1.445c.456.039.915.1 1.364.185a.725.725 0 1 0 .266-1.425Z" data-name="Path 212"/><path fill="#1d2547" d="M14.5 42.774v-7.25a.725.725 0 0 0-.725-.725H11.6v-2.175a.725.725 0 0 0-.725-.725h-7.25a.725.725 0 0 0-.725.725v2.175H.725a.725.725 0 0 0-.725.725v7.25a.725.725 0 0 0 .725.725h13.05a.725.725 0 0 0 .725-.725Zm-11.6-.725H1.45v-5.8H2.9Zm7.25 0H7.975v-.725a.725.725 0 0 0-1.45 0v.725H4.35v-8.7h5.8Zm2.9 0H11.6v-5.8h1.45Z" data-name="Path 213"/><path fill="#1d2547" d="M6.525 36.249h1.45a.725.725 0 0 0 0-1.45h-1.45a.725.725 0 0 0 0 1.45Z" data-name="Path 214"/><path fill="#1d2547" d="M6.525 39.149h1.45a.725.725 0 1 0 0-1.45h-1.45a.725.725 0 1 0 0 1.45Z" data-name="Path 215"/><path fill="#1d2547" d="M24.714 20.599a.725.725 0 0 0 .66.425h4.35v2.175a.725.725 0 1 0 1.45 0v-2.175h1.45a.725.725 0 0 0 0-1.45h-1.45v-5.075a.725.725 0 0 0-1.271-.477l-5.075 5.8a.725.725 0 0 0-.114.777Zm5.01-4.17v3.146h-2.752Z" data-name="Path 216"/></svg>